<svg xmlns="http://www.w3.org/2000/svg" xmlns:xlink="http://www.w3.org/1999/xlink" width="430" height="275" viewBox="0 0 430 275">
    <defs>
        <rect id="a" width="410" height="255" rx="10"/>
        <filter id="b" width="109.8%" height="115.7%" x="-4.9%" y="-3.9%" filterUnits="objectBoundingBox">
            <feOffset dy="10" in="SourceAlpha" result="shadowOffsetOuter1"/>
            <feGaussianBlur in="shadowOffsetOuter1" result="shadowBlurOuter1" stdDeviation="5"/>
            <feColorMatrix in="shadowBlurOuter1" values="0 0 0 0 0 0 0 0 0 0 0 0 0 0 0 0 0 0 0.242810236 0"/>
        </filter>
        <filter id="c" width="105.1%" height="108.2%" x="-2.6%" y="-.2%" filterUnits="objectBoundingBox">
            <feOffset dy="1" in="SourceAlpha" result="shadowOffsetInner1"/>
            <feComposite in="shadowOffsetInner1" in2="SourceAlpha" k2="-1" k3="1" operator="arithmetic" result="shadowInnerInner1"/>
            <feColorMatrix in="shadowInnerInner1" result="shadowMatrixInner1" values="0 0 0 0 1 0 0 0 0 1 0 0 0 0 1 0 0 0 0.3 0"/>
            <feOffset dy="-1" in="SourceAlpha" result="shadowOffsetInner2"/>
            <feComposite in="shadowOffsetInner2" in2="SourceAlpha" k2="-1" k3="1" operator="arithmetic" result="shadowInnerInner2"/>
            <feColorMatrix in="shadowInnerInner2" result="shadowMatrixInner2" values="0 0 0 0 1 0 0 0 0 1 0 0 0 0 1 0 0 0 0.3 0"/>
            <feOffset dx="1" in="SourceAlpha" result="shadowOffsetInner3"/>
            <feComposite in="shadowOffsetInner3" in2="SourceAlpha" k2="-1" k3="1" operator="arithmetic" result="shadowInnerInner3"/>
            <feColorMatrix in="shadowInnerInner3" result="shadowMatrixInner3" values="0 0 0 0 1 0 0 0 0 1 0 0 0 0 1 0 0 0 0.299535779 0"/>
            <feOffset dx="-1" in="SourceAlpha" result="shadowOffsetInner4"/>
            <feComposite in="shadowOffsetInner4" in2="SourceAlpha" k2="-1" k3="1" operator="arithmetic" result="shadowInnerInner4"/>
            <feColorMatrix in="shadowInnerInner4" result="shadowMatrixInner4" values="0 0 0 0 1 0 0 0 0 1 0 0 0 0 1 0 0 0 0.3 0"/>
            <feMerge>
                <feMergeNode in="shadowMatrixInner1"/>
                <feMergeNode in="shadowMatrixInner2"/>
                <feMergeNode in="shadowMatrixInner3"/>
                <feMergeNode in="shadowMatrixInner4"/>
            </feMerge>
        </filter>
    </defs>
    <g fill="none" fill-rule="evenodd" transform="translate(10)">
        <mask id="d" fill="#fff">
            <use xlink:href="#a"/>
        </mask>
        <use fill="#000" filter="url(#b)" xlink:href="#a"/>
        <use fill="#F5B324" xlink:href="#a"/>
        <use fill="#000" filter="url(#c)" xlink:href="#a"/>
        <g mask="url(#d)" opacity=".5">
            <g fill="#FFF">
                <path d="M205.071 128.071h1.094V-370h-1.094z"/>
                <path d="M206.164 128.024l-1.093.047-21.725-497.597 1.092-.047z"/>
                <path d="M206.16 127.976l-1.088.095-43.41-496.175 1.09-.097z"/>
                <path d="M206.156 127.929l-1.085.142-65.01-493.81 1.083-.142z"/>
                <path d="M206.148 127.882l-1.077.189-86.488-490.504 1.075-.19z"/>
                <path d="M206.139 127.835l-1.068.236L97.269-358.194l1.067-.236z"/>
                <path d="M206.127 127.788l-1.056.283-128.91-481.1 1.056-.283z"/>
                <path d="M206.114 127.742l-1.043.33-149.773-475.02 1.043-.329z"/>
                <path d="M206.099 127.698l-1.028.373-170.35-468.034 1.028-.373z"/>
                <path d="M206.081 127.653l-1.01.418L14.468-332.086l1.01-.419z"/>
                <path d="M206.062 127.61l-.99.46L-5.423-323.334l.991-.461z"/>
                <path d="M206.041 127.567l-.97.504-229.984-441.795.97-.504z"/>
                <path d="M206.018 127.525l-.946.546L-43.964-303.27l.947-.547z"/>
                <path d="M205.993 127.484l-.921.587-267.614-420.07.922-.586z"/>
                <path d="M205.967 127.445l-.895.626-285.683-407.996.896-.626z"/>
                <path d="M205.939 127.406l-.867.665-303.207-395.147.868-.665z"/>
                <path d="M205.909 127.369l-.837.703-320.154-381.545.837-.703z"/>
                <path d="M205.877 127.333l-.805.738-336.493-367.216.807-.74z"/>
                <path d="M205.844 127.298l-.773.773-352.19-352.19.773-.773z"/>
                <path d="M205.81 127.265l-.739.806-367.216-336.492.738-.806z"/>
                <path d="M205.774 127.234l-.703.837-381.544-320.154.702-.837z"/>
                <path d="M205.737 127.204l-.666.867-395.146-303.207.666-.867z"/>
                <path d="M205.699 127.176l-.628.895-407.996-285.682.628-.895z"/>
                <path d="M205.66 127.15l-.589.921-420.068-267.614.587-.921z"/>
                <path d="M205.618 127.125l-.547.947-431.342-249.036.547-.947z"/>
                <path d="M205.576 127.102l-.505.97-441.794-229.984.505-.97z"/>
                <path d="M205.534 127.08l-.463.991-451.406-210.494.463-.99z"/>
                <path d="M205.49 127.061l-.419 1.01-460.158-190.604.419-1.01z"/>
                <path d="M205.446 127.044l-.374 1.027-468.035-170.35.374-1.027z"/>
                <path d="M205.4 127.029l-.329 1.043-475.019-149.773.33-1.043z"/>
                <path d="M205.354 127.015l-.283 1.056-481.1-128.91.284-1.056z"/>
                <path d="M205.308 127.004l-.236 1.067L-281.193 20.27l.236-1.068z"/>
                <path d="M205.261 126.995l-.19 1.076-490.504-86.488.189-1.077z"/>
                <path d="M205.214 126.988l-.142 1.083-493.81-65.012.142-1.083z"/>
                <path d="M205.167 126.982l-.095 1.09-496.176-43.41.094-1.09z"/>
                <path d="M-292.526 106.346l497.597 21.726.047-1.092-497.597-21.726z"/>
                <path d="M-293 128.071h498.071v-1.093H-293z"/>
                <path d="M-292.573 148.705l.047 1.092 497.597-21.726-.047-1.092z"/>
                <path d="M204.976 126.982l.096 1.09-496.176 43.41-.096-1.09z"/>
                <path d="M204.929 126.988l.142 1.083-493.81 65.012-.142-1.085z"/>
                <path d="M204.881 126.995l.19 1.076-490.504 86.49-.19-1.077z"/>
                <path d="M204.835 127.004l.236 1.067-486.265 107.803-.237-1.068z"/>
                <path d="M204.789 127.015l.283 1.056-481.1 128.91-.283-1.055z"/>
                <path d="M204.743 127.029l.329 1.043-475.02 149.773-.328-1.043z"/>
                <path d="M204.698 127.044l.374 1.027-468.035 170.351-.374-1.027z"/>
                <path d="M204.653 127.061l.419 1.01-460.158 190.605-.42-1.01z"/>
                <path d="M204.61 127.08l.461.991-451.406 210.495-.461-.992z"/>
                <path d="M204.567 127.102l.505.97-441.795 229.983-.505-.97z"/>
                <path d="M204.525 127.125l.546.947-431.342 249.035-.547-.946z"/>
                <path d="M204.484 127.15l.587.921-420.069 267.615-.587-.923z"/>
                <path d="M204.444 127.176l.628.895-407.997 285.684-.627-.897z"/>
                <path d="M204.406 127.204l.666.867-395.147 303.207-.666-.868z"/>
                <path d="M204.369 127.234l.703.837-381.546 320.154-.702-.837z"/>
                <path d="M204.333 127.265l.738.806-367.216 336.493-.74-.807z"/>
                <path d="M204.298 127.298l.773.773-352.19 352.19-.773-.772z"/>
                <path d="M204.265 127.333l.806.738-336.492 367.217-.805-.739z"/>
                <path d="M204.234 127.369l.837.703-320.154 381.545-.837-.703z"/>
                <path d="M204.204 127.406l.867.665-303.206 395.147-.867-.665z"/>
                <path d="M204.176 127.445l.896.626L-80.61 536.068l-.896-.627z"/>
                <path d="M204.15 127.484l.921.587-267.613 420.07-.922-.588z"/>
                <path d="M204.125 127.525l.947.546-249.036 431.343-.947-.547z"/>
                <path d="M204.102 127.567l.97.504-229.985 441.795-.968-.505z"/>
                <path d="M204.08 127.61l.991.46L-5.423 579.479l-.99-.462z"/>
                <path d="M204.061 127.653l1.01.418L14.468 588.23l-1.01-.42z"/>
                <path d="M204.044 127.698l1.027.373L34.72 596.105l-1.027-.374z"/>
                <path d="M204.029 127.742l1.043.33L55.299 603.09l-1.043-.33z"/>
                <path d="M204.016 127.788l1.056.283-128.91 481.1-1.057-.283z"/>
                <path d="M204.004 127.835l1.067.236L97.27 614.336l-1.068-.235z"/>
                <path d="M203.995 127.882l1.077.189-86.49 490.504-1.076-.188z"/>
                <path d="M203.988 127.929l1.083.142-65.011 493.811-1.084-.143z"/>
                <path d="M203.983 127.976l1.088.095-43.41 496.176-1.088-.094z"/>
                <path d="M182.253 625.621l1.093.047 21.726-497.597-1.093-.048z"/>
                <path d="M203.978 626.143h1.093V128.07h-1.093z"/>
                <path d="M203.98 128.12l21.724 497.597 1.093-.048-21.726-497.597z"/>
                <path d="M203.983 128.167l1.088-.095 43.41 496.176-1.089.095z"/>
                <path d="M203.988 128.214l1.083-.143 65.012 493.811-1.084.143z"/>
                <path d="M203.995 128.261l1.077-.19 86.488 490.504-1.075.19z"/>
                <path d="M204.004 128.308l1.067-.237 107.802 486.265-1.066.237z"/>
                <path d="M204.016 128.354l1.056-.283 128.91 481.1-1.056.283z"/>
                <path d="M204.029 128.4l1.043-.329 149.773 475.02-1.043.328z"/>
                <path d="M204.044 128.445l1.027-.373 170.351 468.033-1.027.375z"/>
                <path d="M204.061 128.49l1.01-.419 190.604 460.158-1.01.419z"/>
                <path d="M204.08 128.534l.991-.463 210.494 451.407-.99.462z"/>
                <path d="M204.102 128.576l.97-.505 229.983 441.795-.97.505z"/>
                <path d="M204.125 128.618l.947-.547 249.034 431.343-.945.546z"/>
                <path d="M204.15 128.659l.921-.588 267.614 420.07-.922.587z"/>
                <path d="M204.176 128.698l.896-.627 285.682 407.997-.896.626z"/>
                <path d="M204.204 128.737l.867-.666L508.278 523.22l-.867.664z"/>
                <path d="M204.234 128.774l.837-.703 320.154 381.545-.837.703z"/>
                <path d="M204.265 128.81l.806-.739 336.493 367.217-.806.74z"/>
                <path d="M204.298 128.844l.773-.773 352.19 352.19-.773.773z"/>
                <path d="M204.333 128.877l.738-.805 367.216 336.491-.736.806z"/>
                <path d="M204.369 128.909l.703-.838 381.544 320.154-.702.838z"/>
                <path d="M204.406 128.939l.666-.867 395.146 303.206-.666.867z"/>
                <path d="M204.444 128.967l.628-.895 407.996 285.682-.628.895z"/>
                <path d="M204.484 128.994l.587-.923 420.07 267.615-.587.92z"/>
                <path d="M204.525 129.018l.546-.947 431.343 249.036-.547.947z"/>
                <path d="M204.567 129.041l.505-.97 441.794 229.984-.504.97z"/>
                <path d="M204.61 129.062l.461-.99 451.406 210.493-.461.99z"/>
                <path d="M204.653 129.081l.419-1.01L665.23 318.675l-.419 1.01z"/>
                <path d="M204.698 129.099l.374-1.028 468.034 170.352-.375 1.026z"/>
                <path d="M204.743 129.114l.329-1.043L680.09 277.844l-.33 1.042z"/>
                <path d="M204.789 129.128l.283-1.056 481.1 128.91-.283 1.056z"/>
                <path d="M204.835 129.139l.236-1.068 486.266 107.803-.237 1.068z"/>
                <path d="M204.881 129.148l.19-1.077 490.505 86.49-.19 1.076z"/>
                <path d="M204.929 129.155l.142-1.084 493.81 65.013-.142 1.083z"/>
                <path d="M204.976 129.16l.096-1.09 496.175 43.412-.095 1.089z"/>
                <path d="M205.024 129.163l.047-1.092 497.598 21.727-.048 1.092z"/>
                <path d="M205.071 129.165h498.072v-1.094H205.07z"/>
                <path d="M205.119 129.163l-.047-1.092 497.597-21.725.047 1.092z"/>
                <path d="M205.167 129.16l-.095-1.09 496.176-43.408.096 1.089z"/>
                <path d="M205.214 129.155l-.142-1.084 493.81-65.01.142 1.083z"/>
                <path d="M205.261 129.148l-.19-1.077 490.506-86.489.19 1.077z"/>
                <path d="M205.308 129.139l-.236-1.068L691.337 20.269l.236 1.067z"/>
                <path d="M205.354 129.128l-.283-1.056 481.1-128.91.284 1.055z"/>
                <path d="M205.4 129.114l-.329-1.043 475.02-149.773.328 1.043z"/>
                <path d="M205.446 129.099l-.374-1.028 468.034-170.35.373 1.028z"/>
                <path d="M205.49 129.081l-.419-1.01L665.23-62.532l.42 1.009z"/>
                <path d="M205.534 129.062l-.463-.99L656.477-82.423l.463.991z"/>
                <path d="M205.576 129.041l-.505-.97 441.795-229.983.505.97z"/>
                <path d="M205.618 129.018l-.547-.947 431.343-249.035.546.946z"/>
                <path d="M205.66 128.994l-.589-.923 420.07-267.614.586.923z"/>
                <path d="M205.699 128.967l-.628-.895L613.067-157.61l.628.895z"/>
                <path d="M205.737 128.939l-.666-.867 395.147-303.207.666.868z"/>
                <path d="M205.774 128.909l-.703-.838 381.545-320.154.703.838z"/>
                <path d="M205.81 128.877l-.739-.805 367.217-336.493.739.806z"/>
                <path d="M205.844 128.844l-.773-.773 352.19-352.19.774.774z"/>
                <path d="M205.877 128.81l-.805-.739 336.492-367.216.806.738z"/>
                <path d="M205.909 128.774l-.837-.703 320.154-381.545.837.703z"/>
                <path d="M205.939 128.737l-.867-.666 303.206-395.146.868.665z"/>
                <path d="M205.967 128.698l-.895-.627 285.682-407.996.895.627z"/>
                <path d="M205.993 128.659l-.921-.588 267.613-420.068.922.587z"/>
                <path d="M206.018 128.618l-.946-.547L454.106-303.27l.948.546z"/>
                <path d="M206.041 128.576l-.97-.505 229.984-441.794.97.505z"/>
                <path d="M206.062 128.534l-.99-.463 210.493-451.406.992.463z"/>
                <path d="M206.081 128.49l-1.01-.419 190.604-460.158 1.01.419z"/>
                <path d="M206.099 128.445l-1.028-.373 170.35-468.035 1.028.374z"/>
                <path d="M206.114 128.4l-1.043-.329 149.773-475.02 1.043.33z"/>
                <path d="M206.127 128.354l-1.056-.283 128.91-481.1 1.057.283z"/>
                <path d="M206.139 128.308l-1.068-.237 107.803-486.265 1.067.236z"/>
                <path d="M206.148 128.261l-1.077-.19 86.489-490.504 1.078.189z"/>
                <path d="M206.156 128.214l-1.085-.143 65.012-493.81 1.083.143z"/>
                <path d="M206.16 128.167l-1.088-.095 43.41-496.176 1.088.094z"/>
                <path d="M206.164 128.12l-1.093-.049 21.726-497.597 1.092.048z"/>
            </g>
        </g>
        <g mask="url(#d)">
            <path fill="#FFF" d="M338.355 88.04c5.52.824 9.736 5.711 9.598 11.125 0 .088-.007.184-.014.285l-.114 1.724c-2.095 31.498-2.645 39.554-2.746 40.759-.45 5.559-4.88 10.414-10.312 11.289l-8.388 1.23-1.805 11.34c-1.512 8.697-7.057 13.685-15.217 13.685h-76.805l-.887 1.122c-2.537 3.208-6.09 5.059-9.736 5.078H184.5c-3.672-.02-7.236-1.87-9.787-5.078l-.886-1.122H97.224c-7.749 0-14.022-5.71-15.25-13.888l-1.817-11.511-6.052-.85c-5.45-.88-9.9-5.73-10.35-11.283-.025-.317-2.696-41.018-2.747-42.241-.234-6.555 4.52-10.82 9.331-11.638l7.457-1.313.684-.767c2.665-2.96 6.241-4.792 10.071-5.147 23.89-2.212 41.45-2.453 61.783-2.738h.24c3.255-.044 6.572-.089 9.996-.146l1.361-.019.868-1.046c2.354-2.833 5.71-4.64 9.197-4.97 9.42-.842 20.124-1.286 30.955-1.286s21.517.444 30.899 1.28c3.59.336 6.861 2.067 9.204 4.868l.867 1.034 1.342.025c5.02.101 10.014.171 14.426.228l.178.007c19.617.278 39.9.57 62.467 2.77 3.887.38 7.653 2.383 10.33 5.502l.678.786 5.013.906z"/>
            <path fill="#141310" d="M341.559 99.006c.056-2.294-1.976-4.253-4.147-4.627-3.108-.539-5.058-.983-8.065-1.452-1.342-3.017-4.26-5.381-7.634-5.71-29.74-2.898-54.934-2.435-81.977-3.088-.645-3.023-3.278-5.54-6.437-5.838-18.77-1.667-41.92-1.667-60.689 0-3.209.304-5.874 2.89-6.463 5.971-27.334.52-47.426.21-77.007 2.954-3.26.304-6.084 2.53-7.483 5.388-3.728.57-6.507 1.154-10.236 1.775-1.994.336-4.133 1.908-4.026 5.109l.614 9.458h8.356c.52 0 .937.424.937.95v2.846c0 .527-.418.951-.937.951h-8.064l.899 14.687h8.096c.513 0 .937.425.937.945v2.852c0 .52-.424.945-.937.945H69.49l.24 3.885c.127 1.3.266 2.808.4 4.406.208 2.611 2.443 5.084 4.962 5.49 3.228.506 7.406.994 10.635 1.463l2.576 16.285c.74 4.944 4.28 8.424 8.92 8.424h80.793c.62 2.98 3.279 6.18 6.463 6.2h37.418c3.184-.02 5.849-3.22 6.47-6.2h80.989c5.956 0 8.121-3.79 8.92-8.424l2.532-15.885c4.152-.595 8.779-1.21 12.932-1.863 2.52-.406 4.754-2.879 4.963-5.49.203-2.479.607-6.802.747-8.291h-8.546a.941.941 0 0 1-.937-.945v-2.852c0-.52.418-.945.937-.945h8.856l.804-14.687h-8.73a.942.942 0 0 1-.937-.95v-2.847c0-.526.418-.95.938-.95h9.026l.697-9.94z"/>
            <g fill="#FFF">
                <path d="M301.57 156.829l-1.234-3.15-1.247 3.15h2.481zm.273-6.796l4.716 11.17h-3.292l-.81-1.984h-4.273l-.785 1.983h-3.228l4.709-11.169h2.963zM291.822 150.11v11.093h-3.051v-6.37l-2.837 4.341h-.062l-2.818-4.31v6.339h-3V150.11h3.24l2.64 4.291 2.647-4.291zM277.218 158.585v2.618h-8.989V150.11h8.907v2.618h-5.868v1.673h5.317v2.427h-5.317v1.757zM265 150.11v11.093h-2.69l-4.735-6.086v6.086h-3.032V150.11h2.862l4.557 5.863v-5.863zM248.162 161.203h3.083V150.11h-3.083zM243.205 157.272l2.31 1.65c-1.044 1.437-2.449 2.502-4.905 2.502-3.165 0-5.71-2.427-5.71-5.736v-.032c0-3.232 2.488-5.768 5.837-5.768 2.266 0 3.722.951 4.703 2.313l-2.31 1.794c-.634-.792-1.362-1.3-2.424-1.3-1.551 0-2.64 1.314-2.64 2.93v.031c0 1.66 1.089 2.96 2.64 2.96 1.157 0 1.835-.538 2.5-1.344M226.164 158.585v2.618h-8.989V150.11h8.907v2.618h-5.867v1.673h5.316v2.427h-5.316v1.757zM214.422 157.748v.032c0 2.262-1.792 3.613-4.482 3.613-1.956 0-3.823-.62-5.184-1.838l1.709-2.048c1.089.875 2.31 1.331 3.589 1.331.823 0 1.266-.284 1.266-.76v-.032c0-.457-.366-.71-1.867-1.059-2.355-.539-4.178-1.204-4.178-3.486v-.032c0-2.06 1.633-3.55 4.292-3.55 1.88 0 3.348.508 4.552 1.477l-1.533 2.168c-1.013-.71-2.12-1.09-3.102-1.09-.74 0-1.107.317-1.107.71v.032c0 .507.38.729 1.911 1.077 2.551.552 4.134 1.376 4.134 3.455M202.502 150.11v6.148c0 3.582-2.038 5.147-5.184 5.147-3.153 0-5.128-1.597-5.128-5.07v-6.225h3.114v6.161c0 1.604.81 2.364 2.045 2.364 1.235 0 2.038-.729 2.038-2.282v-6.243h3.115zM186.645 155.688v-.032c0-1.604-1.152-2.992-2.842-2.992-1.678 0-2.805 1.357-2.805 2.96v.032c0 1.597 1.159 2.992 2.836 2.992 1.69 0 2.81-1.362 2.81-2.96m3.134-.064v.032c0 3.182-2.563 5.768-5.975 5.768-3.419 0-5.95-2.554-5.95-5.736v-.032c0-3.182 2.563-5.768 5.981-5.768 3.412 0 5.944 2.554 5.944 5.736M175.314 150.11v11.093h-3.064v-4.216h-3.944v4.216h-3.07V150.11h3.07v4.152h3.944v-4.152zM162.305 150.11v2.694h-3.317v8.399h-3.07v-8.4h-3.324v-2.693zM149.917 150.11v2.694h-5.792v1.882h5.241v2.555h-5.241v3.962h-3.07V150.11zM133.73 156.829l-1.234-3.15-1.253 3.15h2.487zm.266-6.796l4.716 11.17h-3.291l-.804-1.984h-4.273l-.792 1.983h-3.228l4.716-11.169h2.956zM121.494 154.122v-.038c0-.868-.633-1.312-1.659-1.312h-2.013v2.662h2.026c1.045 0 1.646-.507 1.646-1.312m.81 3.214l2.64 3.867h-3.545l-2.228-3.36h-1.349v3.36h-3.07V150.11h5.242c1.69 0 2.86.444 3.602 1.204.652.634.98 1.49.98 2.58v.031c0 1.7-.898 2.822-2.272 3.411M112.22 155.593v.032c0 3.2-2.323 5.577-6.311 5.577h-4.21V150.11h4.273c3.956 0 6.248 2.282 6.248 5.484m-3.146.076v-.032c0-1.775-1.222-2.802-3.058-2.802h-1.247v5.642h1.247c1.836 0 3.058-1.015 3.058-2.808"/>
            </g>
            <g fill="#FFF">
                <path d="M322.384 117.915c0 6.11-2.367 11.568-6.665 15.359-3.989 3.518-9.464 5.375-15.833 5.375-6.57 0-11.926-1.775-15.914-5.293-4.253-3.733-6.59-9.216-6.59-15.441 0-6.117 2.355-11.556 6.628-15.32 3.964-3.487 9.432-5.332 15.794-5.332s11.838 1.832 15.839 5.306c4.342 3.771 6.741 9.223 6.741 15.346zm-22.498 9.337c6.496 0 11.028-3.841 11.028-9.35 0-5.35-4.672-9.242-11.11-9.242-6.457 0-10.957 3.797-10.957 9.242 0 6.46 5.545 9.35 11.04 9.35zM271.945 137.255v.406a.469.469 0 0 1-.494.494h-11.223c-.298 0-.494-.197-.494-.494v-.406h-.013v-22.009s-6.305 1.395-8.04 14.098h-.018c-.05.235-.215.386-.475.386h-7.052a.457.457 0 0 1-.475-.386h-.012c-1.741-12.703-8.046-14.098-8.046-14.098v22.123h-.006v.292c0 .297-.197.494-.494.494h-11.224a.469.469 0 0 1-.493-.494v-.292h-.007V98.803h.007v-.374c0-.291.202-.488.493-.488h2.317c8.78 0 17.548 5.87 21.32 14.954l.146.348.146-.348c3.773-9.084 12.54-14.954 21.32-14.954h2.323c.298 0 .494.197.494.488v38.826zM215.808 137.191v.476c0 .291-.196.494-.487.494l-11.217-.019c-.279 0-.463-.184-.482-.456V133.623c0-.292-.196-.495-.493-.495h-.07v-.006l-17.725-.006c-.29 0-.487.196-.487.494v4.057c0 .291-.196.494-.494.494h-11.21a.472.472 0 0 1-.494-.494v-13.933c0-16.969 9.678-26.534 21.58-26.534 11.9 0 21.58 9.565 21.58 26.534v13.457zm-12.186-13.736l-.006-3.36c0-6.186-4.21-11.219-9.388-11.219-5.171 0-9.381 5.033-9.381 11.22v3.366h.006c.013.278.203.469.481.469h.083v.019h17.712c.297 0 .493-.203.493-.495zM167.996 128.703v.051l-2.361 8.944-.057.204a.462.462 0 0 1-.43.252h-26.373c-.297 0-.5-.195-.5-.487V98.898c0-.29.203-.494.5-.494h11.762c.291 0 .488.203.488.494v.47h.006l-.013 28.487c0 .297.203.493.5.493h16.123c.216 0 .355.146.355.355M131.812 137.191v.476c0 .291-.196.494-.493.494l-11.211-.019a.465.465 0 0 1-.488-.456V133.623c0-.292-.196-.495-.494-.495h-.07v-.006l-17.718-.006c-.297 0-.493.196-.493.494v4.057c0 .291-.197.494-.494.494H89.14c-.292 0-.488-.203-.488-.494v-13.933c0-16.969 9.679-26.534 21.58-26.534 11.894 0 21.58 9.565 21.58 26.534v13.457zm-12.192-13.736l-.006-3.36c0-6.186-4.21-11.219-9.382-11.219-5.178 0-9.387 5.033-9.387 11.22v3.366h.006c.013.278.203.469.487.469h.083v.019h17.705c.298 0 .494-.203.494-.495z"/>
            </g>
        </g>
    </g>
</svg>
