<svg xmlns="http://www.w3.org/2000/svg" width="81" height="80" viewBox="0 0 81 80">
    <g fill="none" fill-rule="evenodd">
        <path fill="#F0B323" d="M62.971.69v9.847L.001 15.955V75.01l62.97-5.418v9.848l17.353-41.293z"/>
        <g fill="#141310">
            <path d="M22.805 25.463l-.232 13.29 4-.366-.088 5.023-4 .367-.323 18.522-4.895.45.73-41.86 10.21-.937-.088 5.023zM35.192 31.535l-1.554 16.808 2.158-.199-.604-16.609zm1.01 29.476l-.184-7.558-2.895.265-.605 7.631-4.37.4 4.153-42.173 6.21-.57 2.742 41.54-5.052.465zM51.664 24.069c.017-.942-.448-1.475-1.236-1.403-.842.078-1.327.697-1.343 1.639l-.511 29.302c-.017.942.447 1.473 1.29 1.396.788-.072 1.272-.692 1.289-1.633l.511-29.301zM51.194 60c-.165.434-.334 1.076-.344 1.652-.014.837.24 1.336.818 1.283.58-.053.803-.805.813-1.381a3.16 3.16 0 0 0-.192-1.027l2.053-.188c.15.404.4 1.165.385 2.002-.034 1.936-1.268 3.407-3.636 3.625-2.527.231-3.713-1.018-3.672-3.373.015-.89.295-1.855.62-2.407-2.618-.544-4.467-2.986-4.406-6.492l.499-28.569c.074-4.238 2.968-7.43 6.388-7.744 3.42-.313 6.211 2.357 6.137 6.595l-.498 28.57c-.064 3.661-2.216 6.523-4.964 7.454z"/>
        </g>
    </g>
</svg>
