<svg xmlns="http://www.w3.org/2000/svg" width="146" height="80" viewBox="0 0 146 80">
    <g fill="none" fill-rule="evenodd">
        <path fill="#000" d="M128.473 0v9.763L0 21.1v58.55l128.473-11.338v9.764l17.18-40.94z"/>
        <g fill="#F5B324">
            <path d="M32.598 68.646l-3.595.33-1.478-19.7-2.222 20.041-3.804.35-3.496-41.114 4.794-.44L24.29 49.78l2.152-22.003 2.867-.263 1.442 21.672 2.414-22.027 4.429-.407zM44.57 38.23l-1.54 16.664 2.137-.197-.597-16.467zm.998 29.224l-.181-7.494-2.866.264-.6 7.565-4.325.397 4.11-41.812 6.15-.566 2.713 41.186-5.001.46zM53.124 66.76l.724-41.502 4.899-.45-.725 41.5zM69.646 29.243l-.63 36.055-4.846.446.63-36.055-3.49.32.094-5.446L72.972 23.5l-.095 5.446zM74.75 64.771l.724-41.501 4.898-.45-.638 36.52 5.21-.479-.087 4.98zM87.41 63.607l.725-41.501 4.898-.45-.724 41.501zM101.106 62.866c-3.908.36-6.245-2.844-6.172-7.046l.088-5.032 4.481-.413-.1 5.76c-.02 1.089.69 2.111 1.682 2.02.938-.087 1.577-.974 1.6-2.322.073-4.15-.807-7.385-2.858-12.065-1.75-4.034-4.346-10.321-4.27-14.628.083-4.824 2.175-8.435 6.656-8.847 3.387-.311 5.828 2.883 5.755 7.085l-.097 5.551-4.533.417.111-6.33c.022-1.244-.75-1.795-1.427-1.733-.677.062-1.522.762-1.544 2.006-.095 5.5.813 7.125 3.01 12.362 2.148 5.086 4.19 10.285 4.114 14.642-.113 6.485-3.995 8.343-6.496 8.573M118.68 24.736l-.63 36.055-4.846.445.63-36.055-3.491.321.095-5.446 11.567-1.063-.095 5.446z"/>
        </g>
    </g>
</svg>
