<svg xmlns="http://www.w3.org/2000/svg" width="179" height="72" viewBox="0 0 179 72">
    <g fill="none" fill-rule="evenodd">
        <path fill="#FFF" d="M172.384 11.197c3.43.512 6.051 3.545 5.965 6.905 0 .055-.004.114-.008.177l-.071 1.07c-1.302 19.55-1.644 24.551-1.707 25.299-.28 3.45-3.034 6.464-6.41 7.007l-5.212.763-1.122 7.039c-.94 5.398-4.387 8.494-9.459 8.494h-47.736l-.55.697c-1.578 1.99-3.786 3.14-6.052 3.151H76.758c-2.282-.011-4.497-1.16-6.083-3.151l-.55-.697H22.513c-4.816 0-8.715-3.544-9.478-8.62l-1.13-7.145-3.76-.527c-3.388-.547-6.154-3.557-6.433-7.003-.016-.197-1.676-25.46-1.708-26.22-.145-4.068 2.81-6.715 5.8-7.223l4.634-.814.425-.476c1.656-1.838 3.88-2.975 6.26-3.195 14.848-1.373 25.762-1.523 38.4-1.7h.15c2.022-.027 4.083-.055 6.212-.09l.846-.012.539-.65c1.463-1.758 3.549-2.88 5.716-3.084C74.842.67 81.495.393 88.227.393c6.732 0 13.373.276 19.204.795a8.456 8.456 0 0 1 5.72 3.022l.54.641.833.016c3.12.063 6.225.106 8.967.141l.11.004c12.193.174 24.799.355 38.825 1.72 2.416.236 4.757 1.48 6.421 3.415l.421.488 3.116.562z"/>
        <path fill="#141310" d="M174.375 18.004c.035-1.424-1.228-2.64-2.577-2.872-1.932-.335-3.144-.61-5.013-.901-.834-1.873-2.647-3.34-4.745-3.545-18.483-1.798-34.142-1.511-50.95-1.916-.402-1.877-2.038-3.439-4.002-3.624-11.665-1.035-26.053-1.035-37.719 0-1.995.189-3.651 1.794-4.017 3.706-16.989.323-29.477.13-47.862 1.834-2.027.189-3.781 1.57-4.65 3.344-2.318.354-4.045.716-6.363 1.102-1.24.208-2.569 1.184-2.502 3.17l.382 5.871H9.55c.323 0 .582.264.582.59v1.767c0 .326-.26.59-.582.59H4.538l.558 9.116h5.032c.319 0 .583.264.583.586v1.77a.587.587 0 0 1-.583.587h-4.85l.149 2.412c.078.806.165 1.743.248 2.734.13 1.621 1.518 3.156 3.084 3.408 2.007.314 4.603.617 6.61.908L16.97 58.75c.46 3.069 2.66 5.229 5.544 5.229h50.215c.386 1.849 2.038 3.836 4.017 3.848h23.257c1.978-.012 3.635-2 4.02-3.848h50.337c3.703 0 5.048-2.353 5.544-5.229l1.574-9.86c2.58-.37 5.457-.751 8.038-1.156 1.566-.252 2.955-1.787 3.084-3.408.127-1.538.378-4.221.465-5.146h-5.312a.585.585 0 0 1-.582-.586v-1.77c0-.323.26-.587.582-.587h5.505l.5-9.116h-5.426a.585.585 0 0 1-.583-.59v-1.767c0-.326.26-.59.583-.59h5.61l.433-6.17z"/>
        <g fill="#FFF">
            <path d="M149.521 53.894l-.767-1.956-.775 1.956h1.542zm.17-4.218l2.93 6.932h-2.045l-.504-1.23h-2.656l-.488 1.23h-2.006l2.927-6.932h1.841zM143.462 49.723v6.886h-1.896v-3.955l-1.763 2.696h-.039l-1.751-2.676v3.935h-1.865v-6.886h2.014l1.641 2.664 1.645-2.664zM134.386 54.984v1.625h-5.587v-6.886h5.535v1.625h-3.647v1.039h3.305v1.506h-3.305v1.09zM126.792 49.723v6.886h-1.672l-2.943-3.778v3.778h-1.885v-6.886h1.779l2.832 3.64v-3.64zM116.326 56.609h1.916v-6.886h-1.916zM113.246 54.17l1.436 1.022c-.65.893-1.523 1.554-3.05 1.554-1.967 0-3.548-1.507-3.548-3.56v-.02c0-2.006 1.546-3.58 3.628-3.58 1.408 0 2.313.59 2.923 1.436l-1.437 1.113c-.393-.492-.845-.807-1.506-.807-.964 0-1.641.815-1.641 1.818v.02c0 1.03.677 1.837 1.641 1.837.72 0 1.14-.334 1.554-.834M102.654 54.984v1.625h-5.587v-6.886h5.536v1.625h-3.647v1.039h3.305v1.506h-3.305v1.09zM95.356 54.464v.02c0 1.404-1.113 2.242-2.786 2.242-1.215 0-2.376-.385-3.222-1.14l1.062-1.271c.677.543 1.436.826 2.231.826.512 0 .787-.177.787-.472v-.02c0-.283-.228-.44-1.16-.657-1.464-.334-2.597-.747-2.597-2.164v-.02c0-1.278 1.015-2.203 2.667-2.203 1.169 0 2.082.315 2.83.917l-.953 1.345c-.63-.44-1.318-.676-1.928-.676-.46 0-.688.196-.688.44v.02c0 .315.236.453 1.188.669 1.585.342 2.569.854 2.569 2.144M87.947 49.723v3.817c0 2.223-1.266 3.194-3.222 3.194-1.96 0-3.187-.991-3.187-3.147v-3.864h1.936v3.825c0 .995.504 1.467 1.27 1.467.768 0 1.268-.452 1.268-1.416v-3.876h1.935zM78.092 53.185v-.02c0-.995-.716-1.856-1.767-1.856-1.042 0-1.743.842-1.743 1.837v.02c0 .991.72 1.857 1.763 1.857 1.05 0 1.747-.846 1.747-1.838m1.947-.039v.02c0 1.975-1.593 3.58-3.714 3.58-2.124 0-3.698-1.585-3.698-3.56v-.02c0-1.975 1.593-3.58 3.718-3.58 2.12 0 3.694 1.585 3.694 3.56M71.05 49.723v6.886h-1.905v-2.617h-2.451v2.617h-1.908v-6.886h1.908V52.3h2.45v-2.577zM62.964 49.723v1.672h-2.062v5.214h-1.908v-5.214h-2.066v-1.672zM55.264 49.723v1.672h-3.6v1.169h3.258v1.586h-3.258v2.459h-1.908v-6.886zM45.204 53.894l-.767-1.956-.78 1.956h1.547zm.165-4.218l2.931 6.932h-2.046l-.5-1.23H43.1l-.492 1.23h-2.006l2.93-6.932h1.838zM37.599 52.214v-.024c0-.539-.394-.814-1.031-.814h-1.251v1.652h1.259c.649 0 1.023-.315 1.023-.814m.503 1.995l1.64 2.4H37.54l-1.385-2.086h-.838v2.086h-1.909v-6.886h3.258c1.05 0 1.779.276 2.239.748.405.393.61.924.61 1.601v.02c0 1.054-.559 1.75-1.413 2.117M31.835 53.127v.02c0 1.986-1.444 3.461-3.923 3.461h-2.616v-6.885h2.655c2.46 0 3.884 1.417 3.884 3.404m-1.956.047v-.02c0-1.102-.76-1.74-1.9-1.74h-.775v3.503h.775c1.14 0 1.9-.63 1.9-1.743"/>
        </g>
        <g fill="#FFF">
            <path d="M162.457 29.74c0 3.793-1.47 7.18-4.142 9.533-2.48 2.184-5.882 3.337-9.84 3.337-4.084 0-7.413-1.102-9.892-3.285-2.643-2.318-4.095-5.721-4.095-9.585 0-3.796 1.463-7.172 4.119-9.51 2.463-2.163 5.862-3.308 9.816-3.308 3.954 0 7.358 1.137 9.845 3.293 2.698 2.341 4.19 5.725 4.19 9.525zm-13.982 5.796c4.037 0 6.853-2.385 6.853-5.804 0-3.32-2.903-5.736-6.905-5.736-4.013 0-6.81 2.357-6.81 5.736 0 4.01 3.446 5.804 6.862 5.804zM131.108 41.744v.252c0 .185-.126.307-.307.307h-6.975c-.185 0-.307-.122-.307-.307v-.252h-.008v-13.66s-3.92.865-4.997 8.75h-.012c-.031.146-.134.24-.295.24h-4.383a.284.284 0 0 1-.295-.24h-.008c-1.082-7.885-5-8.75-5-8.75v13.731h-.004v.181c0 .185-.122.307-.307.307h-6.976c-.18 0-.307-.122-.307-.307v-.18h-.004V17.877h.004v-.232c0-.181.126-.303.307-.303H102.674c5.457 0 10.906 3.643 13.251 9.281l.09.217.091-.217c2.345-5.638 7.794-9.281 13.251-9.281h1.444c.185 0 .307.122.307.303V41.744zM96.218 41.705V42c0 .181-.122.307-.303.307l-6.972-.012c-.173 0-.287-.114-.3-.283V39.49a.291.291 0 0 0-.306-.307h-.043v-.004l-11.017-.004c-.18 0-.303.122-.303.307V42a.291.291 0 0 1-.307.307H69.7a.293.293 0 0 1-.307-.307v-8.648c0-10.532 6.015-16.47 13.412-16.47 7.397 0 13.413 5.938 13.413 16.47v8.353zm-7.574-8.526l-.004-2.085c0-3.84-2.617-6.964-5.835-6.964-3.214 0-5.83 3.124-5.83 6.964v2.089h.003c.008.173.126.291.3.291h.05v.012h11.009a.291.291 0 0 0 .307-.307zM66.5 36.437v.031l-1.467 5.551-.035.127a.287.287 0 0 1-.268.157H48.34c-.185 0-.311-.122-.311-.303V17.937c0-.18.126-.307.31-.307h7.31c.182 0 .304.126.304.307v.291h.004l-.008 17.682c0 .184.126.306.31.306h10.022c.133 0 .22.09.22.22M44.012 41.705V42a.291.291 0 0 1-.307.307l-6.968-.012a.29.29 0 0 1-.303-.283V39.49a.291.291 0 0 0-.307-.307h-.043v-.004l-11.013-.004c-.184 0-.306.122-.306.307V42a.291.291 0 0 1-.307.307H17.49c-.181 0-.303-.126-.303-.307v-8.648c0-10.532 6.016-16.47 13.412-16.47 7.393 0 13.413 5.938 13.413 16.47v8.353zm-7.578-8.526l-.004-2.085c0-3.84-2.616-6.964-5.83-6.964-3.219 0-5.835 3.124-5.835 6.964v2.089h.004c.007.173.125.291.302.291h.052v.012h11.004a.291.291 0 0 0 .307-.307z"/>
        </g>
    </g>
</svg>
